<svg width="16" height="16" viewBox="0 0 16 16" fill="none" xmlns="http://www.w3.org/2000/svg">
<g clip-path="url(#clip0_315_342)">
<path d="M1.125 1.125H3.625L5.3 9.49375C5.35715 9.7815 5.51369 10.04 5.74222 10.2239C5.97074 10.4079 6.25669 10.5056 6.55 10.5H12.625C12.9183 10.5056 13.2043 10.4079 13.4328 10.2239C13.6613 10.04 13.8178 9.7815 13.875 9.49375L14.875 4.25H4.25M6.75 13.625C6.75 13.9702 6.47018 14.25 6.125 14.25C5.77982 14.25 5.5 13.9702 5.5 13.625C5.5 13.2798 5.77982 13 6.125 13C6.47018 13 6.75 13.2798 6.75 13.625ZM13.625 13.625C13.625 13.9702 13.3452 14.25 13 14.25C12.6548 14.25 12.375 13.9702 12.375 13.625C12.375 13.2798 12.6548 13 13 13C13.3452 13 13.625 13.2798 13.625 13.625Z" stroke="white" stroke-width="1.25" stroke-linecap="round" stroke-linejoin="round"/>
</g>
<defs>
<clipPath id="clip0_315_342">
<rect width="15" height="15" fill="white" transform="translate(0.5 0.5)"/>
</clipPath>
</defs>
</svg>
